<svg width="12" height="12" viewBox="0 0 12 12" fill="none" xmlns="http://www.w3.org/2000/svg">
<path d="M10.875 0H1.125C0.503906 0 0 0.575893 0 1.28571V10.7143C0 11.4241 0.503906 12 1.125 12H10.875C11.4961 12 12 11.4241 12 10.7143V1.28571C12 0.575893 11.4961 0 10.875 0ZM10.875 10.5536C10.875 10.642 10.8117 10.7143 10.7344 10.7143H1.26562C1.18828 10.7143 1.125 10.642 1.125 10.5536V1.44643C1.125 1.35804 1.18828 1.28571 1.26562 1.28571H10.7344C10.8117 1.28571 10.875 1.35804 10.875 1.44643V10.5536ZM8.35547 4.35536L6.91641 6L8.35547 7.64464C8.46328 7.76786 8.46328 7.96875 8.35547 8.09464L7.83281 8.69196C7.725 8.81518 7.54922 8.81518 7.43906 8.69196L6 7.04732L4.56094 8.69196C4.45312 8.81518 4.27734 8.81518 4.16719 8.69196L3.64453 8.09464C3.53672 7.97143 3.53672 7.77054 3.64453 7.64464L5.08359 6L3.64453 4.35536C3.53672 4.23214 3.53672 4.03125 3.64453 3.90536L4.16719 3.30804C4.275 3.18482 4.45078 3.18482 4.56094 3.30804L6 4.95268L7.43906 3.30804C7.54688 3.18482 7.72266 3.18482 7.83281 3.30804L8.35547 3.90536C8.46562 4.02857 8.46562 4.22946 8.35547 4.35536Z" fill="#F0F2F5"/>
</svg>
