<svg width="154" height="24" viewBox="0 0 154 24" fill="none" xmlns="http://www.w3.org/2000/svg">
<path d="M6.86719 23.2188C4.05469 22.4297 2.64844 20.6133 2.64844 17.7695V15.4375C2.64844 13.7891 1.95312 12.9648 0.5625 12.9648V10.5391C1.92188 10.5391 2.61719 9.76172 2.64844 8.20703V5.72266C2.64844 4.27734 3 3.10938 3.70312 2.21875C4.40625 1.32812 5.46094 0.683594 6.86719 0.285156L7.52344 2.17188C6.92969 2.39063 6.48047 2.77344 6.17578 3.32031C5.87109 3.85938 5.71094 4.60938 5.69531 5.57031V8.03125C5.69531 9.79688 4.99609 11.0352 3.59766 11.7461C4.99609 12.4648 5.69531 13.7109 5.69531 15.4844V17.9688C5.73438 19.7969 6.34375 20.9141 7.52344 21.3203L6.86719 23.2188ZM14.6719 12.543C14.6719 11.2852 14.9141 10.1641 15.3984 9.17969C15.8828 8.19531 16.5781 7.43359 17.4844 6.89453C18.3984 6.35547 19.457 6.08594 20.6602 6.08594C22.3711 6.08594 23.7656 6.60938 24.8438 7.65625C25.9297 8.70312 26.5352 10.125 26.6602 11.9219L26.6836 12.7891C26.6836 14.7344 26.1406 16.2969 25.0547 17.4766C23.9688 18.6484 22.5117 19.2344 20.6836 19.2344C18.8555 19.2344 17.3945 18.6484 16.3008 17.4766C15.2148 16.3047 14.6719 14.7109 14.6719 12.6953V12.543ZM18.0586 12.7891C18.0586 13.9922 18.2852 14.9141 18.7383 15.5547C19.1914 16.1875 19.8398 16.5039 20.6836 16.5039C21.5039 16.5039 22.1445 16.1914 22.6055 15.5664C23.0664 14.9336 23.2969 13.9258 23.2969 12.543C23.2969 11.3633 23.0664 10.4492 22.6055 9.80078C22.1445 9.15234 21.4961 8.82812 20.6602 8.82812C19.832 8.82812 19.1914 9.15234 18.7383 9.80078C18.2852 10.4414 18.0586 11.4375 18.0586 12.7891ZM35.8945 9.49609C35.4336 9.43359 35.0273 9.40234 34.6758 9.40234C33.3945 9.40234 32.5547 9.83594 32.1562 10.7031V19H28.7695V6.32031H31.9688L32.0625 7.83203C32.7422 6.66797 33.6836 6.08594 34.8867 6.08594C35.2617 6.08594 35.6133 6.13672 35.9414 6.23828L35.8945 9.49609ZM36.8086 12.5664C36.8086 10.6211 37.2695 9.05469 38.1914 7.86719C39.1211 6.67969 40.3711 6.08594 41.9414 6.08594C43.332 6.08594 44.4141 6.5625 45.1875 7.51562L45.3281 6.32031H48.3984V18.5781C48.3984 19.6875 48.1445 20.6523 47.6367 21.4727C47.1367 22.293 46.4297 22.918 45.5156 23.3477C44.6016 23.7773 43.5312 23.9922 42.3047 23.9922C41.375 23.9922 40.4688 23.8047 39.5859 23.4297C38.7031 23.0625 38.0352 22.5859 37.582 22L39.082 19.9375C39.9258 20.8828 40.9492 21.3555 42.1523 21.3555C43.0508 21.3555 43.75 21.1133 44.25 20.6289C44.75 20.1523 45 19.4727 45 18.5898V17.9102C44.2188 18.793 43.1914 19.2344 41.918 19.2344C40.3945 19.2344 39.1602 18.6406 38.2148 17.4531C37.2773 16.2578 36.8086 14.6758 36.8086 12.707V12.5664ZM40.1953 12.8125C40.1953 13.9609 40.4258 14.8633 40.8867 15.5195C41.3477 16.168 41.9805 16.4922 42.7852 16.4922C43.8164 16.4922 44.5547 16.1055 45 15.332V10C44.5469 9.22656 43.8164 8.83984 42.8086 8.83984C41.9961 8.83984 41.3555 9.17188 40.8867 9.83594C40.4258 10.5 40.1953 11.4922 40.1953 12.8125ZM58.3594 19C58.2031 18.6953 58.0898 18.3164 58.0195 17.8633C57.1992 18.7773 56.1328 19.2344 54.8203 19.2344C53.5781 19.2344 52.5469 18.875 51.7266 18.1562C50.9141 17.4375 50.5078 16.5312 50.5078 15.4375C50.5078 14.0938 51.0039 13.0625 51.9961 12.3438C52.9961 11.625 54.4375 11.2617 56.3203 11.2539H57.8789V10.5273C57.8789 9.94141 57.7266 9.47266 57.4219 9.12109C57.125 8.76953 56.6523 8.59375 56.0039 8.59375C55.4336 8.59375 54.9844 8.73047 54.6562 9.00391C54.3359 9.27734 54.1758 9.65234 54.1758 10.1289H50.7891C50.7891 9.39453 51.0156 8.71484 51.4688 8.08984C51.9219 7.46484 52.5625 6.97656 53.3906 6.625C54.2188 6.26562 55.1484 6.08594 56.1797 6.08594C57.7422 6.08594 58.9805 6.48047 59.8945 7.26953C60.8164 8.05078 61.2773 9.15234 61.2773 10.5742V16.0703C61.2852 17.2734 61.4531 18.1836 61.7812 18.8008V19H58.3594ZM55.5586 16.6445C56.0586 16.6445 56.5195 16.5352 56.9414 16.3164C57.3633 16.0898 57.6758 15.7891 57.8789 15.4141V13.2344H56.6133C54.918 13.2344 54.0156 13.8203 53.9062 14.9922L53.8945 15.1914C53.8945 15.6133 54.043 15.9609 54.3398 16.2344C54.6367 16.5078 55.043 16.6445 55.5586 16.6445ZM66.9961 6.32031L67.1016 7.78516C68.0078 6.65234 69.2227 6.08594 70.7461 6.08594C72.0898 6.08594 73.0898 6.48047 73.7461 7.26953C74.4023 8.05859 74.7383 9.23828 74.7539 10.8086V19H71.3672V10.8906C71.3672 10.1719 71.2109 9.65234 70.8984 9.33203C70.5859 9.00391 70.0664 8.83984 69.3398 8.83984C68.3867 8.83984 67.6719 9.24609 67.1953 10.0586V19H63.8086V6.32031H66.9961ZM80.9062 19H77.5078V6.32031H80.9062V19ZM77.3086 3.03906C77.3086 2.53125 77.4766 2.11328 77.8125 1.78516C78.1562 1.45703 78.6211 1.29297 79.207 1.29297C79.7852 1.29297 80.2461 1.45703 80.5898 1.78516C80.9336 2.11328 81.1055 2.53125 81.1055 3.03906C81.1055 3.55469 80.9297 3.97656 80.5781 4.30469C80.2344 4.63281 79.7773 4.79688 79.207 4.79688C78.6367 4.79688 78.1758 4.63281 77.8242 4.30469C77.4805 3.97656 77.3086 3.55469 77.3086 3.03906ZM87.5977 16.2695H93.7969V19H83.2734V16.9375L89.2383 9.0625H83.4492V6.32031H93.6094V8.32422L87.5977 16.2695ZM146.742 21.3203C147.93 20.8984 148.539 19.7656 148.57 17.9219V15.4375C148.57 13.6719 149.285 12.4453 150.715 11.7578C149.285 11.0703 148.57 9.82422 148.57 8.01953V5.57031C148.539 3.75 147.93 2.61719 146.742 2.17188L147.398 0.285156C148.797 0.675781 149.848 1.31641 150.551 2.20703C151.254 3.08984 151.609 4.25 151.617 5.6875V8.20703C151.648 9.76172 152.344 10.5391 153.703 10.5391V12.9648C152.312 12.9648 151.617 13.7812 151.617 15.4141V17.957C151.555 20.6914 150.148 22.4453 147.398 23.2188L146.742 21.3203Z" fill="white"/>
<path d="M103.266 19C103.109 18.6953 102.996 18.3164 102.926 17.8633C102.105 18.7773 101.039 19.2344 99.7266 19.2344C98.4844 19.2344 97.4531 18.875 96.6328 18.1562C95.8203 17.4375 95.4141 16.5312 95.4141 15.4375C95.4141 14.0938 95.9102 13.0625 96.9023 12.3438C97.9023 11.625 99.3438 11.2617 101.227 11.2539H102.785V10.5273C102.785 9.94141 102.633 9.47266 102.328 9.12109C102.031 8.76953 101.559 8.59375 100.91 8.59375C100.34 8.59375 99.8906 8.73047 99.5625 9.00391C99.2422 9.27734 99.082 9.65234 99.082 10.1289H95.6953C95.6953 9.39453 95.9219 8.71484 96.375 8.08984C96.8281 7.46484 97.4688 6.97656 98.2969 6.625C99.125 6.26562 100.055 6.08594 101.086 6.08594C102.648 6.08594 103.887 6.48047 104.801 7.26953C105.723 8.05078 106.184 9.15234 106.184 10.5742V16.0703C106.191 17.2734 106.359 18.1836 106.688 18.8008V19H103.266ZM100.465 16.6445C100.965 16.6445 101.426 16.5352 101.848 16.3164C102.27 16.0898 102.582 15.7891 102.785 15.4141V13.2344H101.52C99.8242 13.2344 98.9219 13.8203 98.8125 14.9922L98.8008 15.1914C98.8008 15.6133 98.9492 15.9609 99.2461 16.2344C99.543 16.5078 99.9492 16.6445 100.465 16.6445ZM120.211 12.7773C120.211 14.8086 119.777 16.3945 118.91 17.5352C118.043 18.668 116.832 19.2344 115.277 19.2344C113.902 19.2344 112.805 18.707 111.984 17.6523L111.832 19H108.785V1H112.172V7.45703C112.953 6.54297 113.98 6.08594 115.254 6.08594C116.801 6.08594 118.012 6.65625 118.887 7.79688C119.77 8.92969 120.211 10.5273 120.211 12.5898V12.7773ZM116.824 12.5312C116.824 11.25 116.621 10.3164 116.215 9.73047C115.809 9.13672 115.203 8.83984 114.398 8.83984C113.32 8.83984 112.578 9.28125 112.172 10.1641V15.168C112.586 16.0586 113.336 16.5039 114.422 16.5039C115.516 16.5039 116.234 15.9648 116.578 14.8867C116.742 14.3711 116.824 13.5859 116.824 12.5312ZM125.883 19H122.484V1H125.883V19ZM134.52 19.2344C132.66 19.2344 131.145 18.6641 129.973 17.5234C128.809 16.3828 128.227 14.8633 128.227 12.9648V12.6367C128.227 11.3633 128.473 10.2266 128.965 9.22656C129.457 8.21875 130.152 7.44531 131.051 6.90625C131.957 6.35937 132.988 6.08594 134.145 6.08594C135.879 6.08594 137.242 6.63281 138.234 7.72656C139.234 8.82031 139.734 10.3711 139.734 12.3789V13.7617H131.66C131.77 14.5898 132.098 15.2539 132.645 15.7539C133.199 16.2539 133.898 16.5039 134.742 16.5039C136.047 16.5039 137.066 16.0312 137.801 15.0859L139.465 16.9492C138.957 17.668 138.27 18.2305 137.402 18.6367C136.535 19.0352 135.574 19.2344 134.52 19.2344ZM134.133 8.82812C133.461 8.82812 132.914 9.05469 132.492 9.50781C132.078 9.96094 131.812 10.6094 131.695 11.4531H136.406V11.1836C136.391 10.4336 136.188 9.85547 135.797 9.44922C135.406 9.03516 134.852 8.82812 134.133 8.82812Z" fill="#999B9E"/>
</svg>
